<?xml version="1.0" standalone="no"?>
<!DOCTYPE svg PUBLIC "-//W3C//DTD SVG 20010904//EN"
 "http://www.w3.org/TR/2001/REC-SVG-20010904/DTD/svg10.dtd">
<svg version="1.0" xmlns="http://www.w3.org/2000/svg"
 width="340.000000pt" height="340.000000pt" viewBox="0 0 340.000000 340.000000"
 preserveAspectRatio="xMidYMid meet">
<metadata>
Created by potrace 1.11, written by Peter Selinger 2001-2013
</metadata>
<g transform="translate(0.000000,340.000000) scale(0.100000,-0.100000)"
fill="#000000" stroke="none">
<path d="M1619 3376 c-89 -61 -91 -182 -4 -259 23 -21 24 -25 14 -67 -6 -25
-13 -54 -15 -65 -5 -26 -14 -67 -18 -80 -1 -5 -6 -31 -10 -57 -5 -31 -14 -49
-25 -52 -9 -2 -133 -4 -276 -4 -143 0 -270 -1 -282 -1 -22 -1 -23 -4 -23 -106
l0 -104 -65 1 c-36 1 -68 -1 -71 -5 -5 -5 -7 -112 -5 -305 1 -36 5 -52 14 -51
6 1 24 1 38 0 l26 -1 0 -135 c0 -74 2 -138 5 -141 4 -3 133 -5 288 -5 155 1
285 -1 290 -4 13 -8 -1 -45 -16 -45 -14 0 -15 -5 -18 -52 -1 -22 -6 -23 -76
-25 -66 -1 -78 2 -100 22 -47 43 -88 57 -155 53 -113 -7 -198 -93 -199 -202
-1 -45 -10 -65 -74 -172 -39 -67 -72 -131 -72 -143 0 -36 -82 -169 -110 -179
-36 -13 -80 -61 -87 -93 -4 -23 -12 -29 -47 -35 -22 -4 -58 -8 -78 -8 -20 -1
-38 -4 -40 -6 -14 -19 -96 -119 -111 -134 -30 -34 -57 -101 -57 -142 0 -40 32
-124 48 -124 9 0 21 14 87 95 89 111 83 108 134 67 l33 -28 -63 -80 c-35 -43
-72 -88 -81 -98 -26 -28 -23 -34 23 -47 32 -10 51 -10 85 -1 65 18 89 36 171
136 60 73 73 94 69 115 -19 96 -19 98 7 104 61 16 111 85 109 151 -2 46 70
183 103 196 12 4 47 53 80 109 53 91 84 123 86 89 0 -7 1 -155 2 -328 l2 -315
43 -3 c41 -3 42 -4 27 -25 -21 -29 -19 -59 5 -90 l20 -25 -21 -36 c-21 -36
-21 -37 -3 -74 18 -35 18 -39 2 -70 -17 -36 -10 -88 14 -103 9 -6 8 -12 -5
-27 -9 -10 -17 -23 -17 -29 0 -6 -30 -20 -66 -32 -80 -26 -141 -67 -187 -124
-38 -47 -46 -64 -57 -120 -7 -34 -5 -40 14 -47 11 -4 184 -8 384 -8 408 0 380
-6 376 78 -2 25 -5 92 -8 150 -5 129 -3 115 -22 135 -15 15 -15 17 1 28 24 19
28 81 5 109 -17 23 -17 24 1 47 24 30 24 62 -1 93 -19 25 -19 26 0 63 17 34
18 41 5 71 l-14 34 79 0 79 0 -14 -34 c-13 -29 -12 -37 4 -67 18 -33 18 -35
-1 -70 -20 -39 -17 -79 8 -100 11 -9 10 -15 -7 -38 -22 -30 -20 -72 5 -100 14
-15 14 -19 -1 -34 -17 -16 -18 -29 -23 -260 -1 -49 1 -91 4 -95 9 -9 753 -8
762 1 28 27 -18 142 -82 202 -42 40 -132 88 -185 99 -16 4 -35 19 -47 40 -18
31 -19 35 -4 49 20 21 20 83 0 104 -15 14 -14 18 1 47 10 17 17 37 16 44 -2 6
-3 18 -4 26 0 8 -8 22 -16 30 -14 14 -14 18 6 45 21 29 22 51 4 94 -6 14 -2
17 19 17 20 0 26 5 27 23 1 12 1 161 1 330 l0 308 45 -73 c25 -40 52 -86 59
-101 8 -15 25 -32 37 -38 12 -6 41 -42 65 -80 34 -56 42 -79 42 -118 0 -61 30
-109 87 -136 38 -18 41 -23 38 -55 -2 -19 -6 -47 -10 -61 -5 -21 3 -37 41 -85
76 -95 136 -148 182 -162 43 -13 119 -8 136 8 8 8 -67 111 -122 168 -33 36
-33 49 3 76 18 14 38 26 43 26 6 0 45 -43 87 -95 43 -52 82 -95 87 -95 15 0
48 83 48 124 0 41 -27 108 -57 142 -10 10 -38 44 -63 74 -55 68 -54 67 -99 69
-30 1 -77 6 -102 10 -4 1 -9 13 -12 29 -8 36 -47 80 -83 92 -22 8 -40 30 -72
86 -23 42 -42 85 -42 96 0 21 -19 57 -96 183 -40 67 -49 89 -51 134 -4 108
-98 203 -201 203 -56 -1 -115 -22 -150 -55 -16 -15 -38 -23 -73 -24 l-49 -3 0
40 c0 34 -3 40 -21 40 -15 0 -20 5 -17 23 3 25 14 26 385 27 l172 0 0 123 c0
67 0 130 1 140 0 13 9 17 35 17 21 0 35 5 36 13 6 85 2 340 -6 343 -6 3 -39 5
-75 7 l-64 2 0 103 c0 64 -4 102 -11 103 -5 0 -151 1 -322 1 -172 1 -313 4
-313 9 0 4 -13 72 -30 150 l-30 143 34 28 c46 38 64 77 61 130 -6 118 -126
186 -216 124z"/>
</g>
</svg>
